<svg xmlns="http://www.w3.org/2000/svg" width="38.861" height="75" viewBox="0 0 38.861 75">
  <g id="dollar-symbol" transform="translate(-116.652 0)">
    <path id="Path_6" data-name="Path 6" d="M146.513,34.069a90.3,90.3,0,0,0-9.17-4.151,20.587,20.587,0,0,1-5.034-2.819c-2.99-2.385-2.416-6.258,1.084-7.791a8.837,8.837,0,0,1,3.083-.635,23.4,23.4,0,0,1,11.587,2.293c1.828.883,2.432.6,3.052-1.3.651-2.014,1.193-4.058,1.8-6.088a2.126,2.126,0,0,0-1.379-2.835,29.454,29.454,0,0,0-7.311-2.184c-3.315-.511-3.315-.527-3.33-3.857-.016-4.693-.016-4.693-4.724-4.693-.682,0-1.363-.015-2.045,0-2.2.062-2.571.449-2.633,2.664-.031.991,0,1.983-.015,2.99-.016,2.943-.031,2.9-2.85,3.919-6.816,2.478-11.029,7.125-11.478,14.561-.4,6.583,3.036,11.029,8.442,14.266,3.33,2,7.017,3.175,10.549,4.74a15.67,15.67,0,0,1,3.842,2.262c3.392,2.8,2.773,7.466-1.255,9.232a12.634,12.634,0,0,1-6.769.883,30.213,30.213,0,0,1-10.316-3.083c-1.905-.991-2.463-.728-3.113,1.332-.558,1.781-1.053,3.578-1.549,5.375-.666,2.416-.418,2.99,1.89,4.12a32.94,32.94,0,0,0,9.294,2.664c2.509.4,2.587.511,2.618,3.113.015,1.177.015,2.37.031,3.547a2.107,2.107,0,0,0,2.262,2.385c1.735.031,3.485.031,5.22-.015a1.986,1.986,0,0,0,2.153-2.246c0-1.611.077-3.237.015-4.848a2.56,2.56,0,0,1,2.215-2.912A17.506,17.506,0,0,0,151.8,59.1C158.425,51.046,155.9,39.258,146.513,34.069Z" transform="translate(0 0)" fill="#e4dd30"/>
  </g>
</svg>
