<svg xmlns="http://www.w3.org/2000/svg" width="65.911" height="75" viewBox="0 0 65.911 75">
  <g id="skull_1_" data-name="skull(1)" transform="translate(-31.023)">
    <g id="Group_4" data-name="Group 4" transform="translate(57.435 48.388)">
      <g id="Group_3" data-name="Group 3">
        <path id="Path_2" data-name="Path 2" d="M223.438,335l-4.361-4.362a2.181,2.181,0,0,0-3.084,0L211.631,335a2.183,2.183,0,0,0,1.542,3.723H221.9A2.183,2.183,0,0,0,223.438,335Z" transform="translate(-210.99 -330)" fill="#f55858"/>
      </g>
    </g>
    <g id="Group_6" data-name="Group 6" transform="translate(39.743 26.449)">
      <g id="Group_5" data-name="Group 5" transform="translate(0)">
        <path id="Path_3" data-name="Path 3" d="M101.9,180a10.9,10.9,0,1,0,10.9,10.9A10.917,10.917,0,0,0,101.9,180Zm0,17.476a6.571,6.571,0,1,1,6.571-6.571A6.6,6.6,0,0,1,101.9,197.473Z" transform="translate(-90.998 -179.997)" fill="#f55858"/>
      </g>
    </g>
    <g id="Group_8" data-name="Group 8" transform="translate(66.407 26.449)">
      <g id="Group_7" data-name="Group 7" transform="translate(0)">
        <path id="Path_4" data-name="Path 4" d="M281.9,180a10.9,10.9,0,1,0,10.9,10.9A10.917,10.917,0,0,0,281.9,180Zm0,17.476a6.571,6.571,0,1,1,6.572-6.571A6.6,6.6,0,0,1,281.9,197.473Z" transform="translate(-271 -179.997)" fill="#f55858"/>
      </g>
    </g>
    <g id="Group_10" data-name="Group 10" transform="translate(31.023)">
      <g id="Group_9" data-name="Group 9" transform="translate(0)">
        <path id="Path_5" data-name="Path 5" d="M96.221,39.7A32.778,32.778,0,0,0,87.285,9.654h0A32.944,32.944,0,0,0,31.736,39.7a13.278,13.278,0,0,0-.139,8.157,12.875,12.875,0,0,0,10.028,8.972c.556.158.589,0,1.679.182.3.049.586.091.9.112v8.5a6.536,6.536,0,0,0,3.995,6.06A41.643,41.643,0,0,0,63.976,75h.007A41.65,41.65,0,0,0,79.76,71.678a6.536,6.536,0,0,0,3.994-6.06v-8.51c.3-.02.588-.059.886-.1a11.843,11.843,0,0,0,1.793-.21,12.885,12.885,0,0,0,9.962-9.058A13.268,13.268,0,0,0,96.221,39.7Zm-4.049,6.823a8.531,8.531,0,0,1-6.784,6c-1.8.055-1.546.414-3.394.039a2.2,2.2,0,0,0-2.635,2.153V65.619a2.153,2.153,0,0,1-1.3,2.006c-.8.336-1.884.712-3.126,1.114V63.984a2.148,2.148,0,0,0-2.168-2.168,2.2,2.2,0,0,0-2.2,2.2v5.907a35.564,35.564,0,0,1-4.424.576V63.984a2.148,2.148,0,0,0-2.168-2.168,2.2,2.2,0,0,0-2.2,2.2v6.512a35.34,35.34,0,0,1-4.424-.634V63.984a2.148,2.148,0,0,0-2.168-2.168,2.2,2.2,0,0,0-2.2,2.2v4.754c-1.242-.4-2.294-.807-3.1-1.143a2.22,2.22,0,0,1-1.327-2.036V54.683a2.155,2.155,0,0,0-2.605-2.124c-1.96.4-1.529.005-3.466-.042A8.509,8.509,0,0,1,35.81,46.6a8.911,8.911,0,0,1,.25-5.924,2.2,2.2,0,0,0,.1-1.312,28.549,28.549,0,1,1,55.632,0,2.2,2.2,0,0,0,.1,1.312A8.9,8.9,0,0,1,92.172,46.519Z" transform="translate(-31.023)" fill="#f55858"/>
      </g>
    </g>
  </g>
</svg>
